<?xml version="1.0" encoding="UTF-8"?>
<svg version="1.1" xmlns="http://www.w3.org/2000/svg" width="256" height="256">
<path d="M0 0 C0.92403498 -0.00568326 1.84806995 -0.01136651 2.80010599 -0.01722199 C5.90978688 -0.03018554 9.01818165 -0.00728241 12.12779236 0.0153656 C14.35156529 0.01350268 16.57533731 0.00946849 18.79910278 0.00341797 C24.84863119 -0.00658469 30.89769359 0.01465907 36.94715428 0.04189801 C43.2669966 0.06566768 49.58682871 0.06278259 55.90670776 0.0632019 C66.52020617 0.06783474 77.13350907 0.09136515 87.74693298 0.12767029 C98.67436362 0.16502551 109.60166444 0.18626633 120.52915955 0.18919373 C121.20230157 0.18937654 121.87544359 0.18955935 122.56898386 0.1897477 C123.24094616 0.18992667 123.91290846 0.19010564 124.60523325 0.19029003 C125.95809273 0.19065544 127.31095221 0.19102782 128.66381168 0.1914072 C129.33094533 0.19159272 129.99807898 0.19177823 130.6854288 0.19196937 C141.71732583 0.19575264 152.74919965 0.21658003 163.78107524 0.23741031 C167.55365634 0.24365055 171.326233 0.24727954 175.09881783 0.25044441 C181.01753321 0.25632877 186.93613237 0.27259651 192.85479927 0.29704857 C195.03251752 0.30451313 197.21025042 0.30856207 199.38798141 0.30902863 C202.34967735 0.31027869 205.31106269 0.32376361 208.27270508 0.34057617 C209.14418735 0.33816109 210.01566962 0.335746 210.91356045 0.33325773 C216.84447415 0.38634426 216.84447415 0.38634426 219.07286072 2.61473083 C219.2708862 5.58102209 219.34200804 8.45408179 219.326828 11.4216156 C219.33150797 12.80638643 219.33150797 12.80638643 219.33628249 14.21913242 C219.34429884 17.33153109 219.33792473 20.44373675 219.33164978 23.55613708 C219.33435803 25.77976089 219.33791802 28.00338381 219.3422699 30.227005 C219.35141594 36.28056904 219.34784054 42.33406518 219.34151173 48.38763046 C219.33646317 54.71015868 219.34113998 61.03268092 219.34428406 67.35520935 C219.34816068 78.65564161 219.34192875 89.95603926 219.33176538 101.2564646 C219.32282946 111.50969111 219.32438137 121.76287233 219.33360291 132.01609802 C219.34429756 143.91288791 219.34829444 155.80965028 219.34237838 167.70644665 C219.33925345 174.00768306 219.33886362 180.30888825 219.34545135 186.61012268 C219.35121043 192.53290552 219.34725438 198.45560249 219.33566284 204.37837601 C219.33300853 206.55771364 219.33379439 208.73705846 219.33818817 210.91639328 C219.34361476 213.88030989 219.3368448 216.84394747 219.326828 219.80784607 C219.33352017 221.11609266 219.33352017 221.11609266 219.34034753 222.45076847 C219.30116073 228.38643082 219.30116073 228.38643082 217.07286072 230.61473083 C214.10656947 230.81275632 211.23350976 230.88387815 208.26597595 230.86869812 C206.88120512 230.87337809 206.88120512 230.87337809 205.46845913 230.87815261 C202.35606046 230.88616895 199.2438548 230.87979485 196.13145447 230.8735199 C193.90783066 230.87622815 191.68420775 230.87978814 189.46058655 230.88414001 C183.40702251 230.89328605 177.35352637 230.88971065 171.29996109 230.88338184 C164.97743287 230.87833328 158.65491064 230.8830101 152.3323822 230.88615417 C141.03194994 230.8900308 129.73155229 230.88379886 118.43112695 230.8736355 C108.17790045 230.86469957 97.92471922 230.86625149 87.67149353 230.87547302 C75.77470364 230.88616768 63.87794128 230.89016455 51.98114491 230.8842485 C45.67990849 230.88112357 39.3787033 230.88073373 33.07746887 230.88732147 C27.15468603 230.89308055 21.23198907 230.8891245 15.30921555 230.87753296 C13.12987791 230.87487865 10.9505331 230.8756645 8.77119827 230.88005829 C5.80728166 230.88548487 2.84364408 230.87871491 -0.12025452 230.86869812 C-1.42850111 230.87539029 -1.42850111 230.87539029 -2.76317692 230.88221765 C-8.69883927 230.84303085 -8.69883927 230.84303085 -10.92713928 228.61473083 C-11.13952887 225.69356832 -11.22541941 222.86542954 -11.22579956 219.94192505 C-11.23370866 219.03311185 -11.24161776 218.12429865 -11.24976653 217.18794566 C-11.27391283 214.12405704 -11.28371507 211.06028812 -11.29359436 207.99632263 C-11.30779501 205.80711839 -11.32282923 203.61791942 -11.33863831 201.4287262 C-11.37889387 195.46798151 -11.40630026 189.50724168 -11.43065095 183.54641318 C-11.45198331 178.5761049 -11.47921269 173.6058359 -11.50636023 168.63555652 C-11.57383582 156.24010882 -11.62870799 143.8446325 -11.67807903 131.44910232 C-11.72137201 120.68251004 -11.78113049 109.9160829 -11.8486741 99.14961781 C-11.91784757 88.09918127 -11.97553452 77.04873862 -12.02171248 65.99818164 C-12.04778033 59.79237171 -12.07837607 53.58666648 -12.12026405 47.38094139 C-12.15917161 41.54436058 -12.18354356 35.7078984 -12.19664764 29.87120438 C-12.20391142 27.72696469 -12.2163499 25.58273546 -12.2342968 23.43855858 C-12.25795314 20.51504886 -12.2630479 17.5920794 -12.26339722 14.66848755 C-12.27466245 13.81673453 -12.28592768 12.9649815 -12.29753429 12.08741778 C-12.28117289 8.63544845 -12.01597386 5.893985 -10.96406937 2.58729172 C-7.75716042 -0.51827542 -4.22134873 -0.06410304 0 0 Z " fill="#0F1923" transform="translate(23.927139282226563,12.385269165039063)"/>
<path d="M0 0 C0.92403498 -0.00568326 1.84806995 -0.01136651 2.80010599 -0.01722199 C5.90978688 -0.03018554 9.01818165 -0.00728241 12.12779236 0.0153656 C14.35156529 0.01350268 16.57533731 0.00946849 18.79910278 0.00341797 C24.84863119 -0.00658469 30.89769359 0.01465907 36.94715428 0.04189801 C43.2669966 0.06566768 49.58682871 0.06278259 55.90670776 0.0632019 C66.52020617 0.06783474 77.13350907 0.09136515 87.74693298 0.12767029 C98.67436362 0.16502551 109.60166444 0.18626633 120.52915955 0.18919373 C121.20230157 0.18937654 121.87544359 0.18955935 122.56898386 0.1897477 C123.24094616 0.18992667 123.91290846 0.19010564 124.60523325 0.19029003 C125.95809273 0.19065544 127.31095221 0.19102782 128.66381168 0.1914072 C129.33094533 0.19159272 129.99807898 0.19177823 130.6854288 0.19196937 C141.71732583 0.19575264 152.74919965 0.21658003 163.78107524 0.23741031 C167.55365634 0.24365055 171.326233 0.24727954 175.09881783 0.25044441 C181.01753321 0.25632877 186.93613237 0.27259651 192.85479927 0.29704857 C195.03251752 0.30451313 197.21025042 0.30856207 199.38798141 0.30902863 C202.34967735 0.31027869 205.31106269 0.32376361 208.27270508 0.34057617 C209.14418735 0.33816109 210.01566962 0.335746 210.91356045 0.33325773 C216.84447415 0.38634426 216.84447415 0.38634426 219.07286072 2.61473083 C219.2708862 5.58102209 219.34200804 8.45408179 219.326828 11.4216156 C219.33150797 12.80638643 219.33150797 12.80638643 219.33628249 14.21913242 C219.34429884 17.33153109 219.33792473 20.44373675 219.33164978 23.55613708 C219.33435803 25.77976089 219.33791802 28.00338381 219.3422699 30.227005 C219.35141594 36.28056904 219.34784054 42.33406518 219.34151173 48.38763046 C219.33646317 54.71015868 219.34113998 61.03268092 219.34428406 67.35520935 C219.34816068 78.65564161 219.34192875 89.95603926 219.33176538 101.2564646 C219.32282946 111.50969111 219.32438137 121.76287233 219.33360291 132.01609802 C219.34429756 143.91288791 219.34829444 155.80965028 219.34237838 167.70644665 C219.33925345 174.00768306 219.33886362 180.30888825 219.34545135 186.61012268 C219.35121043 192.53290552 219.34725438 198.45560249 219.33566284 204.37837601 C219.33300853 206.55771364 219.33379439 208.73705846 219.33818817 210.91639328 C219.34361476 213.88030989 219.3368448 216.84394747 219.326828 219.80784607 C219.33352017 221.11609266 219.33352017 221.11609266 219.34034753 222.45076847 C219.30116073 228.38643082 219.30116073 228.38643082 217.07286072 230.61473083 C214.10656947 230.81275632 211.23350976 230.88387815 208.26597595 230.86869812 C206.88120512 230.87337809 206.88120512 230.87337809 205.46845913 230.87815261 C202.35606046 230.88616895 199.2438548 230.87979485 196.13145447 230.8735199 C193.90783066 230.87622815 191.68420775 230.87978814 189.46058655 230.88414001 C183.40702251 230.89328605 177.35352637 230.88971065 171.29996109 230.88338184 C164.97743287 230.87833328 158.65491064 230.8830101 152.3323822 230.88615417 C141.03194994 230.8900308 129.73155229 230.88379886 118.43112695 230.8736355 C108.17790045 230.86469957 97.92471922 230.86625149 87.67149353 230.87547302 C75.77470364 230.88616768 63.87794128 230.89016455 51.98114491 230.8842485 C45.67990849 230.88112357 39.3787033 230.88073373 33.07746887 230.88732147 C27.15468603 230.89308055 21.23198907 230.8891245 15.30921555 230.87753296 C13.12987791 230.87487865 10.9505331 230.8756645 8.77119827 230.88005829 C5.80728166 230.88548487 2.84364408 230.87871491 -0.12025452 230.86869812 C-1.42850111 230.87539029 -1.42850111 230.87539029 -2.76317692 230.88221765 C-8.69883927 230.84303085 -8.69883927 230.84303085 -10.92713928 228.61473083 C-11.13952887 225.69356832 -11.22541941 222.86542954 -11.22579956 219.94192505 C-11.23370866 219.03311185 -11.24161776 218.12429865 -11.24976653 217.18794566 C-11.27391283 214.12405704 -11.28371507 211.06028812 -11.29359436 207.99632263 C-11.30779501 205.80711839 -11.32282923 203.61791942 -11.33863831 201.4287262 C-11.37889387 195.46798151 -11.40630026 189.50724168 -11.43065095 183.54641318 C-11.45198331 178.5761049 -11.47921269 173.6058359 -11.50636023 168.63555652 C-11.57383582 156.24010882 -11.62870799 143.8446325 -11.67807903 131.44910232 C-11.72137201 120.68251004 -11.78113049 109.9160829 -11.8486741 99.14961781 C-11.91784757 88.09918127 -11.97553452 77.04873862 -12.02171248 65.99818164 C-12.04778033 59.79237171 -12.07837607 53.58666648 -12.12026405 47.38094139 C-12.15917161 41.54436058 -12.18354356 35.7078984 -12.19664764 29.87120438 C-12.20391142 27.72696469 -12.2163499 25.58273546 -12.2342968 23.43855858 C-12.25795314 20.51504886 -12.2630479 17.5920794 -12.26339722 14.66848755 C-12.27466245 13.81673453 -12.28592768 12.9649815 -12.29753429 12.08741778 C-12.28117289 8.63544845 -12.01597386 5.893985 -10.96406937 2.58729172 C-7.75716042 -0.51827542 -4.22134873 -0.06410304 0 0 Z M1.07286072 12.61473083 C1.07286072 80.59473083 1.07286072 148.57473083 1.07286072 218.61473083 C69.05286072 218.61473083 137.03286072 218.61473083 207.07286072 218.61473083 C207.07286072 150.63473083 207.07286072 82.65473083 207.07286072 12.61473083 C139.09286072 12.61473083 71.11286072 12.61473083 1.07286072 12.61473083 Z " fill="#E84756" transform="translate(23.927139282226563,12.385269165039063)"/>
<path d="M0 0 C2.98184943 1.41891763 4.78393547 2.60689022 6.84765625 5.203125 C7.36457031 5.84636719 7.88148437 6.48960938 8.4140625 7.15234375 C8.95804688 7.84457031 9.50203125 8.53679687 10.0625 9.25 C10.92294922 10.32701172 10.92294922 10.32701172 11.80078125 11.42578125 C13.54243384 13.61055341 15.27312674 15.80353398 17 18 C17.48452637 18.61552734 17.96905273 19.23105469 18.46826172 19.86523438 C20.26004935 22.14371975 22.04983643 24.42372473 23.83422852 26.70800781 C27.33580898 31.18305671 30.90740619 35.59780759 34.5 40 C39.00759973 45.52339685 43.44842642 51.09184436 47.8359375 56.7109375 C51.33777491 61.18438298 54.90880361 65.59809261 58.5 70 C60.66856715 72.66512636 62.83480984 75.33212966 65 78 C65.53818359 78.66193359 66.07636719 79.32386719 66.63085938 80.00585938 C68.17796061 81.91476748 69.71529923 83.83111586 71.25 85.75 C71.71599609 86.32234375 72.18199219 86.8946875 72.66210938 87.484375 C74.90357199 90.30570162 76.28071634 92.48287283 77 96 C40.18608923 98.77056713 40.18608923 98.77056713 32.90234375 92.9296875 C30.01083758 89.69530052 27.98785828 86.05881626 26.11132812 82.16308594 C24.35443898 78.74348185 21.94789317 75.94312672 19.5 73 C18.61400699 71.8722832 17.73122659 70.74203553 16.8515625 69.609375 C13.02151695 64.73377888 9.08777639 59.94141771 5.15039062 55.15234375 C4.36051758 54.18748047 4.36051758 54.18748047 3.5546875 53.203125 C3.08530762 52.63239258 2.61592773 52.06166016 2.13232422 51.47363281 C-0.01068195 48.68467523 -0.12256358 46.8192863 -0.11352539 43.36669922 C-0.11344986 42.40585419 -0.11337433 41.44500916 -0.11329651 40.45504761 C-0.10813522 39.41542877 -0.10297394 38.37580994 -0.09765625 37.3046875 C-0.0962413 36.24210724 -0.09482635 35.17952698 -0.09336853 34.08474731 C-0.08775834 30.68146991 -0.07520409 27.27825762 -0.0625 23.875 C-0.05748631 21.57161553 -0.05292318 19.26823003 -0.04882812 16.96484375 C-0.0377856 11.30987351 -0.02103752 5.65494141 0 0 Z " fill="#EC4857" transform="translate(70,80)"/>
<path d="M0 0 C0.66 0 1.32 0 2 0 C2.2817885 6.5785504 2.47269781 13.15551741 2.60424805 19.73876953 C2.65914765 21.9717827 2.73390134 24.20440824 2.82983398 26.43603516 C3.34976846 38.85329372 3.74839418 48.53537512 -4.94612122 58.11306763 C-6.25776987 59.44883111 -7.62549729 60.72900489 -9 62 C-9.66 62.66 -10.32 63.32 -11 64 C-13.86888581 64.17532289 -16.63992645 64.23137614 -19.5078125 64.1953125 C-20.76874222 64.19106766 -20.76874222 64.19106766 -22.05514526 64.18673706 C-24.74524046 64.1755243 -27.4350051 64.15041803 -30.125 64.125 C-31.94660978 64.1149716 -33.76822477 64.10584551 -35.58984375 64.09765625 C-40.06002358 64.07558142 -44.52995571 64.04104434 -49 64 C-48.13212481 59.75629534 -45.93643496 57.04952178 -43.25 53.75 C-42.76337891 53.1415625 -42.27675781 52.533125 -41.77539062 51.90625 C-40.1915334 49.93094517 -38.59723306 47.96450102 -37 46 C-36.46697266 45.34322266 -35.93394531 44.68644531 -35.38476562 44.00976562 C-33.20541169 41.32566386 -31.02447741 38.64287795 -28.83886719 35.96386719 C-25.34605147 31.67788693 -21.90341205 27.35721469 -18.5 23 C-14.33849202 17.68753516 -10.15774259 12.39096642 -5.9375 7.125 C-5.37675781 6.41601562 -4.81601563 5.70703125 -4.23828125 4.9765625 C-3.71492188 4.326875 -3.1915625 3.6771875 -2.65234375 3.0078125 C-1.95612915 2.13600342 -1.95612915 2.13600342 -1.24584961 1.24658203 C-0.83471924 0.83520996 -0.42358887 0.42383789 0 0 Z " fill="#EC4857" transform="translate(184,80)"/>
</svg>
